<svg viewBox="0 0 229.99999999999997 80.20350092390707" preserveAspectRatio="xMidYMid meet" class="css-g5ufxp" id="bbbddfed"><defs id="SvgjsDefs2785"></defs><g id="SvgjsG2786" featurekey="symbolFeature-0" transform="matrix(1.0043404284338866,0,0,1.0043404284338866,-20.118822532834812,-10.244393820799193)" fill="#fff"><g xmlns="http://www.w3.org/2000/svg"><path d="M41.165,11.212C27.221,14.36,27.013,29.283,27.013,32.62c0,8.664-3.628,13.863-5.144,15.812   c-1.63,2.096-2.058,3.032-1.739,4.153c0.331,1.162,3.905,0.937,4.067,1.912c0.125,0.749-0.655,1.567-0.361,2.636   c0.199,0.722,1.45,1.363,1.335,1.858c-0.108,0.471-1.028,1.949-0.379,2.707c2.644,3.084,1.68,3.292,1.209,6.265   c-1.119,7.075,9.675,4.62,9.675,4.62c12.708-2.888,13.719,17.474,13.719,17.474h1.901c0,0-1.14-11.66-5.577-16.272   c-4.062-4.225-9.21-3.146-10.731-2.896c-9.206,1.518-7.183-2.719-7.031-3.857c0.343-2.563,0.462-3.761-1.379-6.035   c-0.512-0.631,0.535-1.842,0.228-2.654c-0.307-0.812-1.473-1.003-1.473-1.84c0-1.139,0.85-2.346,0.36-3.122   c-0.65-1.028-3.188-0.981-3.375-2.131c-0.243-1.496,6.385-6.581,6.668-18.711c0.217-9.314,3.224-16.85,12.466-19.449   c8.106-2.278,19.951-0.73,24.692,1.878c6.742,3.706,10.371,8.46,11.408,13.646c1.976,9.868-3.021,19.952-3.826,21.372   c-1.227,2.166-3.307,5.891-4.26,9.097c-2.274,7.653-4.253,8.044-7.419,8.416c-5.96,0.699-6.587-6.285-6.646-7.405h1.112   c0.598,0,1.083-0.485,1.083-1.083v-0.144c0-0.6-0.485-1.084-1.083-1.084h-3.934c-0.599,0-1.084,0.484-1.084,1.084v0.144   c0,0.598,0.485,1.083,1.084,1.083h1.01c1.064,9.672,6.028,9.739,9.233,9.307c3.214-0.433,6.229-3.618,7.132-6.795   c0.506-1.779,2.065-6.926,4.688-10.922c1.517-2.312,4.353-8.412,4.931-14.188C82.61,7.162,50.118,9.19,41.165,11.212z"></path><path d="M50.181,57.483h8.737c0.597,0,1.082-0.485,1.082-1.083v-0.146c0-0.598-0.485-1.082-1.082-1.082h-8.737   c-0.598,0-1.083,0.484-1.083,1.082V56.4C49.098,56.998,49.583,57.483,50.181,57.483z"></path><path d="M49.802,54.838h9.495c0.599,0,1.083-0.484,1.083-1.081v-0.146c0-0.599-0.484-1.082-1.083-1.082h-9.495   c-0.599,0-1.083,0.483-1.083,1.082v0.146C48.719,54.354,49.203,54.838,49.802,54.838z"></path><path d="M50.079,49.875h-0.331c-0.599,0-1.083,0.486-1.083,1.083v0.146c0,0.599,0.484,1.083,1.083,1.083h9.604   c0.598,0,1.083-0.484,1.083-1.083v-0.146c0-0.593-0.479-1.072-1.07-1.08c-0.174-0.906-0.477-2.653-0.526-4.08   c-0.042-1.174,0.124-1.729,0.884-2.6c1.733-1.986,6.823-6.065,6.787-12.095c-0.039-6.454-5.002-11.737-11.336-12.199V18.87   c0,0-0.223-0.004-0.433-0.004c-0.224,0-0.451,0-0.471,0v0.004v0.033c-6.333,0.462-11.297,5.745-11.335,12.199   c-0.036,6.029,5.054,10.109,6.788,12.095c0.76,0.871,0.927,1.426,0.884,2.6C50.554,47.223,50.253,48.967,50.079,49.875z"></path></g></g><g id="SvgjsG2787" featurekey="nameFeature-0" transform="matrix(2.0242294316131204,0,0,2.0242294316131204,76.83794844355343,-8.920534235832488)" fill="#fff"><path d="M1.5625 8.515999999999998 l6.3086 0 l0 25.176 l12.578 0 l0 6.3086 l-18.887 0 l0 -31.484 z M22.79296875 8.515999999999998 l18.887 0 l0 6.2891 l-12.578 0 l0 6.3086 l9.4336 0 l0 6.2891 l-9.4336 0 l0 6.2891 l12.578 0 l0 6.3086 l-12.578 0 l-6.3086 0 l0 -31.484 z M59.726875 8.359000000000002 c4.375 0 8.125 1.5625 11.25 4.6875 s4.6875 6.875 4.6875 11.25 s-1.5625 8.125 -4.6875 11.23 s-6.875 4.668 -11.25 4.668 s-8.125 -1.5625 -11.23 -4.668 s-4.668 -6.8555 -4.668 -11.23 s1.5625 -8.125 4.668 -11.25 s6.8555 -4.6875 11.23 -4.6875 z M59.726875 14.707 c-2.6367 0 -4.8828 0.9375 -6.7383 2.8125 s-2.793 4.1211 -2.793 6.7383 c0 2.6367 0.9375 4.8828 2.793 6.7383 s4.1016 2.793 6.7383 2.793 c2.6172 0 4.8633 -0.9375 6.7383 -2.793 s2.8125 -4.1016 2.8125 -6.7383 c0 -2.6172 -0.9375 -4.8633 -2.8125 -6.7383 s-4.1211 -2.8125 -6.7383 -2.8125 z"></path></g></svg>