<svg viewBox="0 0 230 80.20350092390707" preserveAspectRatio="xMidYMid meet" class="css-g5ufxp" id="aceecdab"><defs id="SvgjsDefs3784"></defs><g id="SvgjsG3785" featurekey="xG21Y3-0" transform="matrix(1.0043404284338866,0,0,1.0043404284338866,-20.118822532834812,-10.244393820799193)" fill="#111"><g xmlns="http://www.w3.org/2000/svg"><path d="M41.165,11.212C27.221,14.36,27.013,29.283,27.013,32.62c0,8.664-3.628,13.863-5.144,15.812   c-1.63,2.096-2.058,3.032-1.739,4.153c0.331,1.162,3.905,0.937,4.067,1.912c0.125,0.749-0.655,1.567-0.361,2.636   c0.199,0.722,1.45,1.363,1.335,1.858c-0.108,0.471-1.028,1.949-0.379,2.707c2.644,3.084,1.68,3.292,1.209,6.265   c-1.119,7.075,9.675,4.62,9.675,4.62c12.708-2.888,13.719,17.474,13.719,17.474h1.901c0,0-1.14-11.66-5.577-16.272   c-4.062-4.225-9.21-3.146-10.731-2.896c-9.206,1.518-7.183-2.719-7.031-3.857c0.343-2.563,0.462-3.761-1.379-6.035   c-0.512-0.631,0.535-1.842,0.228-2.654c-0.307-0.812-1.473-1.003-1.473-1.84c0-1.139,0.85-2.346,0.36-3.122   c-0.65-1.028-3.188-0.981-3.375-2.131c-0.243-1.496,6.385-6.581,6.668-18.711c0.217-9.314,3.224-16.85,12.466-19.449   c8.106-2.278,19.951-0.73,24.692,1.878c6.742,3.706,10.371,8.46,11.408,13.646c1.976,9.868-3.021,19.952-3.826,21.372   c-1.227,2.166-3.307,5.891-4.26,9.097c-2.274,7.653-4.253,8.044-7.419,8.416c-5.96,0.699-6.587-6.285-6.646-7.405h1.112   c0.598,0,1.083-0.485,1.083-1.083v-0.144c0-0.6-0.485-1.084-1.083-1.084h-3.934c-0.599,0-1.084,0.484-1.084,1.084v0.144   c0,0.598,0.485,1.083,1.084,1.083h1.01c1.064,9.672,6.028,9.739,9.233,9.307c3.214-0.433,6.229-3.618,7.132-6.795   c0.506-1.779,2.065-6.926,4.688-10.922c1.517-2.312,4.353-8.412,4.931-14.188C82.61,7.162,50.118,9.19,41.165,11.212z"></path><path d="M50.181,57.483h8.737c0.597,0,1.082-0.485,1.082-1.083v-0.146c0-0.598-0.485-1.082-1.082-1.082h-8.737   c-0.598,0-1.083,0.484-1.083,1.082V56.4C49.098,56.998,49.583,57.483,50.181,57.483z"></path><path d="M49.802,54.838h9.495c0.599,0,1.083-0.484,1.083-1.081v-0.146c0-0.599-0.484-1.082-1.083-1.082h-9.495   c-0.599,0-1.083,0.483-1.083,1.082v0.146C48.719,54.354,49.203,54.838,49.802,54.838z"></path><path d="M50.079,49.875h-0.331c-0.599,0-1.083,0.486-1.083,1.083v0.146c0,0.599,0.484,1.083,1.083,1.083h9.604   c0.598,0,1.083-0.484,1.083-1.083v-0.146c0-0.593-0.479-1.072-1.07-1.08c-0.174-0.906-0.477-2.653-0.526-4.08   c-0.042-1.174,0.124-1.729,0.884-2.6c1.733-1.986,6.823-6.065,6.787-12.095c-0.039-6.454-5.002-11.737-11.336-12.199V18.87   c0,0-0.223-0.004-0.433-0.004c-0.224,0-0.451,0-0.471,0v0.004v0.033c-6.333,0.462-11.297,5.745-11.335,12.199   c-0.036,6.029,5.054,10.109,6.788,12.095c0.76,0.871,0.927,1.426,0.884,2.6C50.554,47.223,50.253,48.967,50.079,49.875z"></path></g></g><g id="SvgjsG3786" featurekey="n48U4P-0" transform="matrix(4.488330587025097,0,0,4.488330587025097,73.8061075566623,-17.673250016094325)" fill="#111"><path d="M4.52 5.720000000000001 l0 11.64 l6.96 0 l0 2.64 l-10.1 0 l0 -14.28 l3.14 0 z M17.72 9.38 c0.97334 0 1.84 0.22664 2.6 0.67998 s1.3567 1.11 1.79 1.97 s0.65 1.85 0.65 2.97 c0 0.10666 -0.0066602 0.28 -0.02 0.52 l-7.46 0 c0.02666 0.82666 0.24332 1.47 0.64998 1.93 s1.03 0.69 1.87 0.69 c0.52 0 0.99666 -0.13 1.43 -0.39 s0.71 -0.57666 0.83 -0.95 l2.5 0 c-0.73334 2.32 -2.3466 3.48 -4.84 3.48 c-0.94666 -0.01334 -1.8233 -0.22 -2.63 -0.62 s-1.45 -1.0233 -1.93 -1.87 s-0.72 -1.83 -0.72 -2.95 c0 -1.0533 0.24334 -2.0134 0.73 -2.88 s1.1333 -1.5133 1.94 -1.94 s1.6767 -0.64 2.61 -0.64 z M19.9 13.719999999999999 c-0.13334 -0.77334 -0.38 -1.3333 -0.74 -1.68 s-0.87334 -0.52 -1.54 -0.52 c-0.69334 0 -1.24 0.19666 -1.64 0.59 s-0.63334 0.93 -0.7 1.61 l4.62 0 z M29.439999999999998 9.38 c1.6533 0 2.96 0.50334 3.92 1.51 s1.44 2.3234 1.44 3.95 c0 1.64 -0.49 2.9566 -1.47 3.95 s-2.2766 1.49 -3.89 1.49 c-1.64 0 -2.94 -0.50334 -3.9 -1.51 s-1.44 -2.3166 -1.44 -3.93 c0 -1.6667 0.49 -2.9934 1.47 -3.98 s2.27 -1.48 3.87 -1.48 z M26.94 14.84 c0 1.0533 0.21334 1.8666 0.64 2.44 s1.0467 0.86 1.86 0.86 c0.84 0 1.47 -0.29334 1.89 -0.88 s0.63 -1.3933 0.63 -2.42 c0 -1.0667 -0.21666 -1.8867 -0.65 -2.46 s-1.0633 -0.86 -1.89 -0.86 c-0.8 0 -1.4133 0.28666 -1.84 0.86 s-0.64 1.3933 -0.64 2.46 z"></path></g></svg>